0
SECTION
2
HEADER
9
$ACADVER
1
AC1006
0
ENDSEC
0
SECTION
2
TABLES
0
TABLE
2
LAYER
70
2
0
LAYER
70
0
62
1
6
CONTINUOUS
2
L2D0
0
LAYER
70
0
62
2
6
CONTINUOUS
2
L1D0
0
ENDTAB
0
ENDSEC
0
SECTION
2
BLOCKS
0
BLOCK
2
Unnamed_172
70
0
10
0
20
0
0
ENDBLK
0
ENDSEC
0
SECTION
2
ENTITIES
0
INSERT
8
0
2
Unnamed_172
10
0
20
0
41
1
42
1
50
0
0
POLYLINE
8
L1D0
70
1
40
0
41
0
66
1
0
VERTEX
8
L1D0
10
44
20
0
0
VERTEX
8
L1D0
10
44
20
1.645
0
VERTEX
8
L1D0
10
40.659
20
1.645
0
VERTEX
8
L1D0
10
40.37
20
2.768
0
VERTEX
8
L1D0
10
40.425
20
2.755
0
VERTEX
8
L1D0
10
40.473
20
3.053
0
VERTEX
8
L1D0
10
40.551
20
3.053
0
VERTEX
8
L1D0
10
40.557
20
2.773
0
VERTEX
8
L1D0
10
40.634
20
2.767
0
VERTEX
8
L1D0
10
40.64
20
3.077
0
VERTEX
8
L1D0
10
40.718
20
3.071
0
VERTEX
8
L1D0
10
40.724
20
2.814
0
VERTEX
8
L1D0
10
40.814
20
2.785
0
VERTEX
8
L1D0
10
40.808
20
3.059
0
VERTEX
8
L1D0
10
40.903
20
3.065
0
VERTEX
8
L1D0
10
40.885
20
2.808
0
VERTEX
8
L1D0
10
40.969
20
2.796
0
VERTEX
8
L1D0
10
40.975
20
3.047
0
VERTEX
8
L1D0
10
41.076
20
3.059
0
VERTEX
8
L1D0
10
41.047
20
2.958
0
VERTEX
8
L1D0
10
41.118
20
2.85
0
VERTEX
8
L1D0
10
41.16
20
2.898
0
VERTEX
8
L1D0
10
41.13
20
3.035
0
VERTEX
8
L1D0
10
41.19
20
3.077
0
VERTEX
8
L1D0
10
41.25
20
2.958
0
VERTEX
8
L1D0
10
41.28
20
2.958
0
VERTEX
8
L1D0
10
41.316
20
3.077
0
VERTEX
8
L1D0
10
41.405
20
3.006
0
VERTEX
8
L1D0
10
41.495
20
3.077
0
VERTEX
8
L1D0
10
41.578
20
3.024
0
VERTEX
8
L1D0
10
41.716
20
3.065
0
VERTEX
8
L1D0
10
41.823
20
3
0
VERTEX
8
L1D0
10
41.907
20
3.059
0
VERTEX
8
L1D0
10
41.931
20
2.91
0
VERTEX
8
L1D0
10
41.997
20
2.898
0
VERTEX
8
L1D0
10
42.021
20
3.071
0
VERTEX
8
L1D0
10
42.098
20
3.071
0
VERTEX
8
L1D0
10
42.068
20
2.916
0
VERTEX
8
L1D0
10
42.134
20
2.838
0
VERTEX
8
L1D0
10
42.224
20
3.077
0
VERTEX
8
L1D0
10
42.307
20
3.065
0
VERTEX
8
L1D0
10
42.218
20
2.82
0
VERTEX
8
L1D0
10
42.272
20
2.785
0
VERTEX
8
L1D0
10
42.397
20
3.035
0
VERTEX
8
L1D0
10
42.481
20
3.041
0
VERTEX
8
L1D0
10
42.385
20
2.689
0
VERTEX
8
L1D0
10
42.445
20
2.677
0
VERTEX
8
L1D0
10
42.57
20
3.041
0
VERTEX
8
L1D0
10
42.66
20
3.041
0
VERTEX
8
L1D0
10
42.604
20
2.642
0
VERTEX
8
L1D0
10
42.697
20
2.637
0
VERTEX
8
L1D0
10
42.733
20
3.028
0
VERTEX
8
L1D0
10
42.836
20
3.049
0
VERTEX
8
L1D0
10
42.795
20
2.647
0
VERTEX
8
L1D0
10
42.893
20
2.647
0
VERTEX
8
L1D0
10
42.919
20
3.034
0
VERTEX
8
L1D0
10
43.006
20
3.044
0
VERTEX
8
L1D0
10
42.98
20
2.647
0
VERTEX
8
L1D0
10
43.073
20
2.647
0
VERTEX
8
L1D0
10
43.089
20
3.023
0
VERTEX
8
L1D0
10
43.181
20
3.044
0
VERTEX
8
L1D0
10
43.161
20
2.642
0
VERTEX
8
L1D0
10
43.253
20
2.658
0
VERTEX
8
L1D0
10
43.264
20
3.028
0
VERTEX
8
L1D0
10
43.351
20
3.044
0
VERTEX
8
L1D0
10
43.356
20
2.637
0
VERTEX
8
L1D0
10
43.428
20
2.642
0
VERTEX
8
L1D0
10
43.428
20
3.049
0
VERTEX
8
L1D0
10
43.536
20
3.034
0
VERTEX
8
L1D0
10
43.542
20
2.632
0
VERTEX
8
L1D0
10
43.619
20
2.637
0
VERTEX
8
L1D0
10
43.634
20
3.044
0
VERTEX
8
L1D0
10
43.727
20
3.054
0
VERTEX
8
L1D0
10
43.727
20
2.653
0
VERTEX
8
L1D0
10
43.815
20
2.647
0
VERTEX
8
L1D0
10
43.815
20
3.049
0
VERTEX
8
L1D0
10
43.923
20
3.044
0
VERTEX
8
L1D0
10
43.924
20
2.946
0
VERTEX
8
L1D0
10
43.845
20
2.727
0
VERTEX
8
L1D0
10
43.927
20
2.697
0
VERTEX
8
L1D0
10
43.928
20
2.642
0
VERTEX
8
L1D0
10
44.015
20
2.642
0
VERTEX
8
L1D0
10
44.014
20
2.666
0
VERTEX
8
L1D0
10
45.063
20
2.284
0
VERTEX
8
L1D0
10
45.063
20
0.245
0
VERTEX
8
L1D0
10
53.563
20
0.245
0
VERTEX
8
L1D0
10
53.563
20
5.645
0
VERTEX
8
L1D0
10
53.163
20
5.645
0
VERTEX
8
L1D0
10
53.163
20
1.188
0
VERTEX
8
L1D0
10
53.162
20
1.182
0
VERTEX
8
L1D0
10
53.162
20
1.175
0
VERTEX
8
L1D0
10
53.161
20
1.169
0
VERTEX
8
L1D0
10
53.159
20
1.163
0
VERTEX
8
L1D0
10
53.158
20
1.156
0
VERTEX
8
L1D0
10
53.152
20
1.138
0
VERTEX
8
L1D0
10
53.14
20
1.114
0
VERTEX
8
L1D0
10
53.124
20
1.094
0
VERTEX
8
L1D0
10
53.114
20
1.084
0
VERTEX
8
L1D0
10
53.094
20
1.068
0
VERTEX
8
L1D0
10
53.07
20
1.056
0
VERTEX
8
L1D0
10
53.052
20
1.05
0
VERTEX
8
L1D0
10
53.045
20
1.049
0
VERTEX
8
L1D0
10
53.039
20
1.047
0
VERTEX
8
L1D0
10
53.033
20
1.046
0
VERTEX
8
L1D0
10
53.026
20
1.046
0
VERTEX
8
L1D0
10
53.02
20
1.045
0
VERTEX
8
L1D0
10
52.346
20
1.045
0
VERTEX
8
L1D0
10
52.34
20
1.046
0
VERTEX
8
L1D0
10
52.333
20
1.046
0
VERTEX
8
L1D0
10
52.327
20
1.047
0
VERTEX
8
L1D0
10
52.321
20
1.049
0
VERTEX
8
L1D0
10
52.314
20
1.05
0
VERTEX
8
L1D0
10
52.296
20
1.056
0
VERTEX
8
L1D0
10
52.272
20
1.068
0
VERTEX
8
L1D0
10
52.252
20
1.084
0
VERTEX
8
L1D0
10
52.242
20
1.094
0
VERTEX
8
L1D0
10
52.226
20
1.114
0
VERTEX
8
L1D0
10
52.214
20
1.138
0
VERTEX
8
L1D0
10
52.208
20
1.156
0
VERTEX
8
L1D0
10
52.207
20
1.163
0
VERTEX
8
L1D0
10
52.205
20
1.169
0
VERTEX
8
L1D0
10
52.204
20
1.175
0
VERTEX
8
L1D0
10
52.204
20
1.182
0
VERTEX
8
L1D0
10
52.203
20
1.188
0
VERTEX
8
L1D0
10
52.203
20
5.645
0
VERTEX
8
L1D0
10
51.803
20
5.645
0
VERTEX
8
L1D0
10
51.803
20
1.188
0
VERTEX
8
L1D0
10
51.802
20
1.182
0
VERTEX
8
L1D0
10
51.802
20
1.175
0
VERTEX
8
L1D0
10
51.801
20
1.169
0
VERTEX
8
L1D0
10
51.799
20
1.163
0
VERTEX
8
L1D0
10
51.798
20
1.156
0
VERTEX
8
L1D0
10
51.792
20
1.138
0
VERTEX
8
L1D0
10
51.78
20
1.114
0
VERTEX
8
L1D0
10
51.764
20
1.094
0
VERTEX
8
L1D0
10
51.754
20
1.084
0
VERTEX
8
L1D0
10
51.734
20
1.068
0
VERTEX
8
L1D0
10
51.71
20
1.056
0
VERTEX
8
L1D0
10
51.692
20
1.05
0
VERTEX
8
L1D0
10
51.685
20
1.049
0
VERTEX
8
L1D0
10
51.679
20
1.047
0
VERTEX
8
L1D0
10
51.673
20
1.046
0
VERTEX
8
L1D0
10
51.666
20
1.046
0
VERTEX
8
L1D0
10
51.66
20
1.045
0
VERTEX
8
L1D0
10
50.986
20
1.045
0
VERTEX
8
L1D0
10
50.98
20
1.046
0
VERTEX
8
L1D0
10
50.973
20
1.046
0
VERTEX
8
L1D0
10
50.967
20
1.047
0
VERTEX
8
L1D0
10
50.961
20
1.049
0
VERTEX
8
L1D0
10
50.954
20
1.05
0
VERTEX
8
L1D0
10
50.936
20
1.056
0
VERTEX
8
L1D0
10
50.912
20
1.068
0
VERTEX
8
L1D0
10
50.892
20
1.084
0
VERTEX
8
L1D0
10
50.882
20
1.094
0
VERTEX
8
L1D0
10
50.866
20
1.114
0
VERTEX
8
L1D0
10
50.854
20
1.138
0
VERTEX
8
L1D0
10
50.848
20
1.156
0
VERTEX
8
L1D0
10
50.847
20
1.163
0
VERTEX
8
L1D0
10
50.845
20
1.169
0
VERTEX
8
L1D0
10
50.844
20
1.175
0
VERTEX
8
L1D0
10
50.844
20
1.182
0
VERTEX
8
L1D0
10
50.843
20
1.188
0
VERTEX
8
L1D0
10
50.843
20
5.645
0
VERTEX
8
L1D0
10
50.443
20
5.645
0
VERTEX
8
L1D0
10
50.443
20
1.188
0
VERTEX
8
L1D0
10
50.442
20
1.182
0
VERTEX
8
L1D0
10
50.442
20
1.175
0
VERTEX
8
L1D0
10
50.441
20
1.169
0
VERTEX
8
L1D0
10
50.439
20
1.163
0
VERTEX
8
L1D0
10
50.438
20
1.156
0
VERTEX
8
L1D0
10
50.432
20
1.138
0
VERTEX
8
L1D0
10
50.42
20
1.114
0
VERTEX
8
L1D0
10
50.404
20
1.094
0
VERTEX
8
L1D0
10
50.394
20
1.084
0
VERTEX
8
L1D0
10
50.374
20
1.068
0
VERTEX
8
L1D0
10
50.35
20
1.056
0
VERTEX
8
L1D0
10
50.332
20
1.05
0
VERTEX
8
L1D0
10
50.325
20
1.049
0
VERTEX
8
L1D0
10
50.319
20
1.047
0
VERTEX
8
L1D0
10
50.313
20
1.046
0
VERTEX
8
L1D0
10
50.306
20
1.046
0
VERTEX
8
L1D0
10
50.3
20
1.045
0
VERTEX
8
L1D0
10
49.626
20
1.045
0
VERTEX
8
L1D0
10
49.62
20
1.046
0
VERTEX
8
L1D0
10
49.613
20
1.046
0
VERTEX
8
L1D0
10
49.607
20
1.047
0
VERTEX
8
L1D0
10
49.601
20
1.049
0
VERTEX
8
L1D0
10
49.594
20
1.05
0
VERTEX
8
L1D0
10
49.576
20
1.056
0
VERTEX
8
L1D0
10
49.552
20
1.068
0
VERTEX
8
L1D0
10
49.532
20
1.084
0
VERTEX
8
L1D0
10
49.522
20
1.094
0
VERTEX
8
L1D0
10
49.506
20
1.114
0
VERTEX
8
L1D0
10
49.494
20
1.138
0
VERTEX
8
L1D0
10
49.488
20
1.156
0
VERTEX
8
L1D0
10
49.487
20
1.163
0
VERTEX
8
L1D0
10
49.485
20
1.169
0
VERTEX
8
L1D0
10
49.484
20
1.175
0
VERTEX
8
L1D0
10
49.484
20
1.182
0
VERTEX
8
L1D0
10
49.483
20
1.188
0
VERTEX
8
L1D0
10
49.483
20
5.645
0
VERTEX
8
L1D0
10
49.083
20
5.645
0
VERTEX
8
L1D0
10
49.083
20
1.188
0
VERTEX
8
L1D0
10
49.082
20
1.182
0
VERTEX
8
L1D0
10
49.082
20
1.175
0
VERTEX
8
L1D0
10
49.081
20
1.169
0
VERTEX
8
L1D0
10
49.079
20
1.163
0
VERTEX
8
L1D0
10
49.078
20
1.156
0
VERTEX
8
L1D0
10
49.072
20
1.138
0
VERTEX
8
L1D0
10
49.06
20
1.114
0
VERTEX
8
L1D0
10
49.044
20
1.094
0
VERTEX
8
L1D0
10
49.034
20
1.084
0
VERTEX
8
L1D0
10
49.014
20
1.068
0
VERTEX
8
L1D0
10
48.99
20
1.056
0
VERTEX
8
L1D0
10
48.972
20
1.05
0
VERTEX
8
L1D0
10
48.965
20
1.049
0
VERTEX
8
L1D0
10
48.959
20
1.047
0
VERTEX
8
L1D0
10
48.953
20
1.046
0
VERTEX
8
L1D0
10
48.946
20
1.046
0
VERTEX
8
L1D0
10
48.94
20
1.045
0
VERTEX
8
L1D0
10
48.266
20
1.045
0
VERTEX
8
L1D0
10
48.26
20
1.046
0
VERTEX
8
L1D0
10
48.253
20
1.046
0
VERTEX
8
L1D0
10
48.247
20
1.047
0
VERTEX
8
L1D0
10
48.241
20
1.049
0
VERTEX
8
L1D0
10
48.234
20
1.05
0
VERTEX
8
L1D0
10
48.216
20
1.056
0
VERTEX
8
L1D0
10
48.192
20
1.068
0
VERTEX
8
L1D0
10
48.172
20
1.084
0
VERTEX
8
L1D0
10
48.162
20
1.094
0
VERTEX
8
L1D0
10
48.146
20
1.114
0
VERTEX
8
L1D0
10
48.134
20
1.138
0
VERTEX
8
L1D0
10
48.128
20
1.156
0
VERTEX
8
L1D0
10
48.127
20
1.163
0
VERTEX
8
L1D0
10
48.125
20
1.169
0
VERTEX
8
L1D0
10
48.124
20
1.175
0
VERTEX
8
L1D0
10
48.124
20
1.182
0
VERTEX
8
L1D0
10
48.123
20
1.188
0
VERTEX
8
L1D0
10
48.123
20
5.645
0
VERTEX
8
L1D0
10
47.723
20
5.645
0
VERTEX
8
L1D0
10
47.723
20
1.188
0
VERTEX
8
L1D0
10
47.722
20
1.182
0
VERTEX
8
L1D0
10
47.722
20
1.175
0
VERTEX
8
L1D0
10
47.721
20
1.169
0
VERTEX
8
L1D0
10
47.719
20
1.163
0
VERTEX
8
L1D0
10
47.718
20
1.156
0
VERTEX
8
L1D0
10
47.712
20
1.138
0
VERTEX
8
L1D0
10
47.7
20
1.114
0
VERTEX
8
L1D0
10
47.684
20
1.094
0
VERTEX
8
L1D0
10
47.674
20
1.084
0
VERTEX
8
L1D0
10
47.654
20
1.068
0
VERTEX
8
L1D0
10
47.63
20
1.056
0
VERTEX
8
L1D0
10
47.612
20
1.05
0
VERTEX
8
L1D0
10
47.605
20
1.049
0
VERTEX
8
L1D0
10
47.599
20
1.047
0
VERTEX
8
L1D0
10
47.593
20
1.046
0
VERTEX
8
L1D0
10
47.586
20
1.046
0
VERTEX
8
L1D0
10
47.58
20
1.045
0
VERTEX
8
L1D0
10
46.906
20
1.045
0
VERTEX
8
L1D0
10
46.9
20
1.046
0
VERTEX
8
L1D0
10
46.893
20
1.046
0
VERTEX
8
L1D0
10
46.887
20
1.047
0
VERTEX
8
L1D0
10
46.881
20
1.049
0
VERTEX
8
L1D0
10
46.874
20
1.05
0
VERTEX
8
L1D0
10
46.856
20
1.056
0
VERTEX
8
L1D0
10
46.832
20
1.068
0
VERTEX
8
L1D0
10
46.812
20
1.084
0
VERTEX
8
L1D0
10
46.802
20
1.094
0
VERTEX
8
L1D0
10
46.786
20
1.114
0
VERTEX
8
L1D0
10
46.774
20
1.138
0
VERTEX
8
L1D0
10
46.768
20
1.156
0
VERTEX
8
L1D0
10
46.767
20
1.163
0
VERTEX
8
L1D0
10
46.765
20
1.169
0
VERTEX
8
L1D0
10
46.764
20
1.175
0
VERTEX
8
L1D0
10
46.764
20
1.182
0
VERTEX
8
L1D0
10
46.763
20
1.188
0
VERTEX
8
L1D0
10
46.763
20
6.045
0
VERTEX
8
L1D0
10
46.213
20
6.045
0
VERTEX
8
L1D0
10
46.013
20
6.445
0
VERTEX
8
L1D0
10
46.014
20
6.601
0
VERTEX
8
L1D0
10
46.017
20
6.754
0
VERTEX
8
L1D0
10
46.028
20
6.906
0
VERTEX
8
L1D0
10
46.048
20
7.054
0
VERTEX
8
L1D0
10
46.08
20
7.197
0
VERTEX
8
L1D0
10
46.127
20
7.333
0
VERTEX
8
L1D0
10
46.23
20
7.525
0
VERTEX
8
L1D0
10
46.366
20
7.692
0
VERTEX
8
L1D0
10
46.533
20
7.828
0
VERTEX
8
L1D0
10
46.725
20
7.931
0
VERTEX
8
L1D0
10
46.861
20
7.978
0
VERTEX
8
L1D0
10
47.004
20
8.01
0
VERTEX
8
L1D0
10
47.152
20
8.03
0
VERTEX
8
L1D0
10
47.304
20
8.041
0
VERTEX
8
L1D0
10
47.457
20
8.044
0
VERTEX
8
L1D0
10
47.613
20
8.045
0
VERTEX
8
L1D0
10
48.672
20
8.045
0
VERTEX
8
L1D0
10
48.728
20
8.043
0
VERTEX
8
L1D0
10
48.781
20
8.037
0
VERTEX
8
L1D0
10
48.83
20
8.027
0
VERTEX
8
L1D0
10
48.874
20
8.012
0
VERTEX
8
L1D0
10
48.913
20
7.992
0
VERTEX
8
L1D0
10
48.943
20
7.967
0
VERTEX
8
L1D0
10
48.971
20
7.931
0
VERTEX
8
L1D0
10
48.989
20
7.889
0
VERTEX
8
L1D0
10
48.994
20
7.845
0
VERTEX
8
L1D0
10
48.989
20
7.801
0
VERTEX
8
L1D0
10
48.971
20
7.759
0
VERTEX
8
L1D0
10
48.943
20
7.723
0
VERTEX
8
L1D0
10
48.913
20
7.698
0
VERTEX
8
L1D0
10
48.874
20
7.678
0
VERTEX
8
L1D0
10
48.83
20
7.663
0
VERTEX
8
L1D0
10
48.781
20
7.653
0
VERTEX
8
L1D0
10
48.728
20
7.647
0
VERTEX
8
L1D0
10
48.672
20
7.645
0
VERTEX
8
L1D0
10
47.55
20
7.645
0
VERTEX
8
L1D0
10
47.484
20
7.642
0
VERTEX
8
L1D0
10
47.415
20
7.635
0
VERTEX
8
L1D0
10
47.344
20
7.621
0
VERTEX
8
L1D0
10
47.272
20
7.597
0
VERTEX
8
L1D0
10
47.203
20
7.56
0
VERTEX
8
L1D0
10
47.138
20
7.508
0
VERTEX
8
L1D0
10
47.08
20
7.432
0
VERTEX
8
L1D0
10
47.043
20
7.342
0
VERTEX
8
L1D0
10
47.03
20
7.245
0
VERTEX
8
L1D0
10
47.043
20
7.148
0
VERTEX
8
L1D0
10
47.08
20
7.058
0
VERTEX
8
L1D0
10
47.138
20
6.982
0
VERTEX
8
L1D0
10
47.203
20
6.93
0
VERTEX
8
L1D0
10
47.272
20
6.893
0
VERTEX
8
L1D0
10
47.344
20
6.869
0
VERTEX
8
L1D0
10
47.415
20
6.855
0
VERTEX
8
L1D0
10
47.484
20
6.848
0
VERTEX
8
L1D0
10
47.55
20
6.845
0
VERTEX
8
L1D0
10
48.613
20
6.845
0
VERTEX
8
L1D0
10
48.778
20
6.846
0
VERTEX
8
L1D0
10
48.946
20
6.852
0
VERTEX
8
L1D0
10
49.116
20
6.869
0
VERTEX
8
L1D0
10
49.287
20
6.904
0
VERTEX
8
L1D0
10
49.455
20
6.961
0
VERTEX
8
L1D0
10
49.615
20
7.045
0
VERTEX
8
L1D0
10
49.758
20
7.161
0
VERTEX
8
L1D0
10
49.889
20
7.331
0
VERTEX
8
L1D0
10
49.972
20
7.531
0
VERTEX
8
L1D0
10
50
20
7.745
0
VERTEX
8
L1D0
10
49.972
20
7.959
0
VERTEX
8
L1D0
10
49.889
20
8.159
0
VERTEX
8
L1D0
10
49.758
20
8.329
0
VERTEX
8
L1D0
10
49.615
20
8.445
0
VERTEX
8
L1D0
10
49.455
20
8.529
0
VERTEX
8
L1D0
10
49.287
20
8.586
0
VERTEX
8
L1D0
10
49.116
20
8.621
0
VERTEX
8
L1D0
10
48.946
20
8.638
0
VERTEX
8
L1D0
10
48.778
20
8.644
0
VERTEX
8
L1D0
10
48.613
20
8.645
0
VERTEX
8
L1D0
10
47.351
20
8.645
0
VERTEX
8
L1D0
10
47.29
20
8.646
0
VERTEX
8
L1D0
10
47.23
20
8.649
0
VERTEX
8
L1D0
10
47.173
20
8.655
0
VERTEX
8
L1D0
10
47.118
20
8.664
0
VERTEX
8
L1D0
10
47.065
20
8.677
0
VERTEX
8
L1D0
10
47.015
20
8.695
0
VERTEX
8
L1D0
10
46.96
20
8.722
0
VERTEX
8
L1D0
10
46.909
20
8.756
0
VERTEX
8
L1D0
10
46.864
20
8.796
0
VERTEX
8
L1D0
10
46.824
20
8.841
0
VERTEX
8
L1D0
10
46.79
20
8.892
0
VERTEX
8
L1D0
10
46.763
20
8.947
0
VERTEX
8
L1D0
10
46.745
20
8.997
0
VERTEX
8
L1D0
10
46.732
20
9.05
0
VERTEX
8
L1D0
10
46.723
20
9.105
0
VERTEX
8
L1D0
10
46.717
20
9.162
0
VERTEX
8
L1D0
10
46.714
20
9.222
0
VERTEX
8
L1D0
10
46.713
20
9.283
0
VERTEX
8
L1D0
10
46.713
20
9.745
0
VERTEX
8
L1D0
10
46.976
20
10.15
0
VERTEX
8
L1D0
10
53.87
20
10.15
0
VERTEX
8
L1D0
10
53.87
20
6.595
0
VERTEX
8
L1D0
10
46.913
20
6.595
0
VERTEX
8
L1D0
10
46.913
20
1.195
0
VERTEX
8
L1D0
10
47.313
20
1.195
0
VERTEX
8
L1D0
10
47.313
20
5.795
0
VERTEX
8
L1D0
10
48.273
20
5.795
0
VERTEX
8
L1D0
10
48.273
20
1.195
0
VERTEX
8
L1D0
10
48.673
20
1.195
0
VERTEX
8
L1D0
10
48.673
20
5.795
0
VERTEX
8
L1D0
10
49.633
20
5.795
0
VERTEX
8
L1D0
10
49.633
20
1.195
0
VERTEX
8
L1D0
10
50.033
20
1.195
0
VERTEX
8
L1D0
10
50.033
20
5.795
0
VERTEX
8
L1D0
10
50.993
20
5.795
0
VERTEX
8
L1D0
10
50.993
20
1.195
0
VERTEX
8
L1D0
10
51.393
20
1.195
0
VERTEX
8
L1D0
10
51.393
20
5.795
0
VERTEX
8
L1D0
10
52.353
20
5.795
0
VERTEX
8
L1D0
10
52.353
20
1.195
0
VERTEX
8
L1D0
10
52.753
20
1.195
0
VERTEX
8
L1D0
10
52.753
20
5.795
0
VERTEX
8
L1D0
10
53.713
20
5.795
0
VERTEX
8
L1D0
10
53.713
20
1.195
0
VERTEX
8
L1D0
10
53.87
20
1.195
0
VERTEX
8
L1D0
10
53.87
20
0.24
0
VERTEX
8
L1D0
10
53.663
20
0.105
0
VERTEX
8
L1D0
10
53.263
20
0.105
0
VERTEX
8
L1D0
10
53.263
20
0
0
SEQEND
0
POLYLINE
8
L1D0
70
1
40
0
41
0
66
1
0
VERTEX
8
L1D0
10
45.063
20
2.71
0
VERTEX
8
L1D0
10
44.416
20
2.945
0
VERTEX
8
L1D0
10
45.063
20
2.945
0
SEQEND
0
POLYLINE
8
L1D0
70
1
40
0
41
0
66
1
0
VERTEX
8
L1D0
10
44.415
20
3.345
0
VERTEX
8
L1D0
10
45.063
20
3.581
0
VERTEX
8
L1D0
10
45.063
20
3.345
0
SEQEND
0
POLYLINE
8
L1D0
70
1
40
0
41
0
66
1
0
VERTEX
8
L1D0
10
40.64
20
3.22
0
VERTEX
8
L1D0
10
40.634
20
3.53
0
VERTEX
8
L1D0
10
40.557
20
3.524
0
VERTEX
8
L1D0
10
40.551
20
3.244
0
VERTEX
8
L1D0
10
40.473
20
3.244
0
VERTEX
8
L1D0
10
40.425
20
3.542
0
VERTEX
8
L1D0
10
40.372
20
3.529
0
VERTEX
8
L1D0
10
40.659
20
4.645
0
VERTEX
8
L1D0
10
44
20
4.645
0
VERTEX
8
L1D0
10
44
20
10.15
0
VERTEX
8
L1D0
10
46.25
20
10.15
0
VERTEX
8
L1D0
10
46.513
20
9.745
0
VERTEX
8
L1D0
10
46.513
20
9.281
0
VERTEX
8
L1D0
10
46.514
20
9.215
0
VERTEX
8
L1D0
10
46.518
20
9.147
0
VERTEX
8
L1D0
10
46.525
20
9.079
0
VERTEX
8
L1D0
10
46.536
20
9.009
0
VERTEX
8
L1D0
10
46.553
20
8.939
0
VERTEX
8
L1D0
10
46.578
20
8.869
0
VERTEX
8
L1D0
10
46.616
20
8.792
0
VERTEX
8
L1D0
10
46.665
20
8.719
0
VERTEX
8
L1D0
10
46.722
20
8.654
0
VERTEX
8
L1D0
10
46.787
20
8.597
0
VERTEX
8
L1D0
10
46.86
20
8.548
0
VERTEX
8
L1D0
10
46.937
20
8.51
0
VERTEX
8
L1D0
10
47.007
20
8.485
0
VERTEX
8
L1D0
10
47.077
20
8.468
0
VERTEX
8
L1D0
10
47.147
20
8.457
0
VERTEX
8
L1D0
10
47.215
20
8.45
0
VERTEX
8
L1D0
10
47.283
20
8.446
0
VERTEX
8
L1D0
10
47.349
20
8.445
0
VERTEX
8
L1D0
10
48.613
20
8.445
0
VERTEX
8
L1D0
10
48.774
20
8.444
0
VERTEX
8
L1D0
10
48.932
20
8.438
0
VERTEX
8
L1D0
10
49.086
20
8.423
0
VERTEX
8
L1D0
10
49.235
20
8.393
0
VERTEX
8
L1D0
10
49.376
20
8.345
0
VERTEX
8
L1D0
10
49.504
20
8.277
0
VERTEX
8
L1D0
10
49.614
20
8.189
0
VERTEX
8
L1D0
10
49.715
20
8.058
0
VERTEX
8
L1D0
10
49.777
20
7.907
0
VERTEX
8
L1D0
10
49.798
20
7.745
0
VERTEX
8
L1D0
10
49.777
20
7.583
0
VERTEX
8
L1D0
10
49.715
20
7.432
0
VERTEX
8
L1D0
10
49.614
20
7.301
0
VERTEX
8
L1D0
10
49.504
20
7.213
0
VERTEX
8
L1D0
10
49.376
20
7.145
0
VERTEX
8
L1D0
10
49.235
20
7.097
0
VERTEX
8
L1D0
10
49.086
20
7.067
0
VERTEX
8
L1D0
10
48.932
20
7.052
0
VERTEX
8
L1D0
10
48.774
20
7.046
0
VERTEX
8
L1D0
10
48.613
20
7.045
0
VERTEX
8
L1D0
10
47.554
20
7.045
0
VERTEX
8
L1D0
10
47.498
20
7.047
0
VERTEX
8
L1D0
10
47.445
20
7.053
0
VERTEX
8
L1D0
10
47.396
20
7.063
0
VERTEX
8
L1D0
10
47.352
20
7.078
0
VERTEX
8
L1D0
10
47.313
20
7.098
0
VERTEX
8
L1D0
10
47.283
20
7.123
0
VERTEX
8
L1D0
10
47.255
20
7.159
0
VERTEX
8
L1D0
10
47.237
20
7.201
0
VERTEX
8
L1D0
10
47.232
20
7.245
0
VERTEX
8
L1D0
10
47.237
20
7.289
0
VERTEX
8
L1D0
10
47.255
20
7.331
0
VERTEX
8
L1D0
10
47.283
20
7.367
0
VERTEX
8
L1D0
10
47.313
20
7.392
0
VERTEX
8
L1D0
10
47.352
20
7.412
0
VERTEX
8
L1D0
10
47.396
20
7.427
0
VERTEX
8
L1D0
10
47.445
20
7.437
0
VERTEX
8
L1D0
10
47.498
20
7.443
0
VERTEX
8
L1D0
10
47.554
20
7.445
0
VERTEX
8
L1D0
10
48.676
20
7.445
0
VERTEX
8
L1D0
10
48.742
20
7.448
0
VERTEX
8
L1D0
10
48.811
20
7.455
0
VERTEX
8
L1D0
10
48.882
20
7.469
0
VERTEX
8
L1D0
10
48.954
20
7.493
0
VERTEX
8
L1D0
10
49.023
20
7.53
0
VERTEX
8
L1D0
10
49.088
20
7.582
0
VERTEX
8
L1D0
10
49.146
20
7.658
0
VERTEX
8
L1D0
10
49.183
20
7.748
0
VERTEX
8
L1D0
10
49.196
20
7.845
0
VERTEX
8
L1D0
10
49.183
20
7.942
0
VERTEX
8
L1D0
10
49.146
20
8.032
0
VERTEX
8
L1D0
10
49.088
20
8.108
0
VERTEX
8
L1D0
10
49.023
20
8.16
0
VERTEX
8
L1D0
10
48.954
20
8.197
0
VERTEX
8
L1D0
10
48.882
20
8.221
0
VERTEX
8
L1D0
10
48.811
20
8.235
0
VERTEX
8
L1D0
10
48.742
20
8.242
0
VERTEX
8
L1D0
10
48.676
20
8.245
0
VERTEX
8
L1D0
10
47.613
20
8.245
0
VERTEX
8
L1D0
10
47.454
20
8.244
0
VERTEX
8
L1D0
10
47.294
20
8.24
0
VERTEX
8
L1D0
10
47.132
20
8.229
0
VERTEX
8
L1D0
10
46.969
20
8.207
0
VERTEX
8
L1D0
10
46.806
20
8.17
0
VERTEX
8
L1D0
10
46.645
20
8.115
0
VERTEX
8
L1D0
10
46.421
20
7.996
0
VERTEX
8
L1D0
10
46.224
20
7.834
0
VERTEX
8
L1D0
10
46.062
20
7.637
0
VERTEX
8
L1D0
10
45.943
20
7.413
0
VERTEX
8
L1D0
10
45.888
20
7.252
0
VERTEX
8
L1D0
10
45.851
20
7.089
0
VERTEX
8
L1D0
10
45.829
20
6.926
0
VERTEX
8
L1D0
10
45.818
20
6.764
0
VERTEX
8
L1D0
10
45.814
20
6.604
0
VERTEX
8
L1D0
10
45.813
20
6.445
0
VERTEX
8
L1D0
10
45.613
20
6.045
0
VERTEX
8
L1D0
10
45.063
20
6.045
0
VERTEX
8
L1D0
10
45.063
20
4.006
0
VERTEX
8
L1D0
10
44.013
20
3.624
0
VERTEX
8
L1D0
10
44.015
20
3.655
0
VERTEX
8
L1D0
10
43.928
20
3.655
0
VERTEX
8
L1D0
10
43.927
20
3.593
0
VERTEX
8
L1D0
10
43.845
20
3.563
0
VERTEX
8
L1D0
10
43.924
20
3.344
0
VERTEX
8
L1D0
10
43.923
20
3.253
0
VERTEX
8
L1D0
10
43.815
20
3.248
0
VERTEX
8
L1D0
10
43.815
20
3.65
0
VERTEX
8
L1D0
10
43.727
20
3.644
0
VERTEX
8
L1D0
10
43.727
20
3.243
0
VERTEX
8
L1D0
10
43.634
20
3.253
0
VERTEX
8
L1D0
10
43.619
20
3.66
0
VERTEX
8
L1D0
10
43.542
20
3.665
0
VERTEX
8
L1D0
10
43.536
20
3.263
0
VERTEX
8
L1D0
10
43.428
20
3.248
0
VERTEX
8
L1D0
10
43.428
20
3.655
0
VERTEX
8
L1D0
10
43.356
20
3.66
0
VERTEX
8
L1D0
10
43.351
20
3.253
0
VERTEX
8
L1D0
10
43.264
20
3.269
0
VERTEX
8
L1D0
10
43.253
20
3.639
0
VERTEX
8
L1D0
10
43.161
20
3.655
0
VERTEX
8
L1D0
10
43.181
20
3.253
0
VERTEX
8
L1D0
10
43.089
20
3.274
0
VERTEX
8
L1D0
10
43.073
20
3.65
0
VERTEX
8
L1D0
10
42.98
20
3.65
0
VERTEX
8
L1D0
10
43.006
20
3.253
0
VERTEX
8
L1D0
10
42.919
20
3.263
0
VERTEX
8
L1D0
10
42.893
20
3.65
0
VERTEX
8
L1D0
10
42.795
20
3.65
0
VERTEX
8
L1D0
10
42.836
20
3.248
0
VERTEX
8
L1D0
10
42.733
20
3.269
0
VERTEX
8
L1D0
10
42.697
20
3.66
0
VERTEX
8
L1D0
10
42.604
20
3.655
0
VERTEX
8
L1D0
10
42.66
20
3.256
0
VERTEX
8
L1D0
10
42.57
20
3.256
0
VERTEX
8
L1D0
10
42.445
20
3.62
0
VERTEX
8
L1D0
10
42.385
20
3.608
0
VERTEX
8
L1D0
10
42.481
20
3.256
0
VERTEX
8
L1D0
10
42.397
20
3.262
0
VERTEX
8
L1D0
10
42.272
20
3.512
0
VERTEX
8
L1D0
10
42.218
20
3.477
0
VERTEX
8
L1D0
10
42.307
20
3.232
0
VERTEX
8
L1D0
10
42.224
20
3.22
0
VERTEX
8
L1D0
10
42.134
20
3.459
0
VERTEX
8
L1D0
10
42.068
20
3.381
0
VERTEX
8
L1D0
10
42.098
20
3.226
0
VERTEX
8
L1D0
10
42.021
20
3.226
0
VERTEX
8
L1D0
10
41.997
20
3.399
0
VERTEX
8
L1D0
10
41.931
20
3.387
0
VERTEX
8
L1D0
10
41.907
20
3.238
0
VERTEX
8
L1D0
10
41.823
20
3.297
0
VERTEX
8
L1D0
10
41.716
20
3.232
0
VERTEX
8
L1D0
10
41.578
20
3.273
0
VERTEX
8
L1D0
10
41.495
20
3.22
0
VERTEX
8
L1D0
10
41.405
20
3.291
0
VERTEX
8
L1D0
10
41.316
20
3.22
0
VERTEX
8
L1D0
10
41.28
20
3.339
0
VERTEX
8
L1D0
10
41.25
20
3.339
0
VERTEX
8
L1D0
10
41.19
20
3.22
0
VERTEX
8
L1D0
10
41.13
20
3.262
0
VERTEX
8
L1D0
10
41.16
20
3.399
0
VERTEX
8
L1D0
10
41.118
20
3.447
0
VERTEX
8
L1D0
10
41.047
20
3.339
0
VERTEX
8
L1D0
10
41.076
20
3.238
0
VERTEX
8
L1D0
10
40.975
20
3.25
0
VERTEX
8
L1D0
10
40.969
20
3.501
0
VERTEX
8
L1D0
10
40.885
20
3.489
0
VERTEX
8
L1D0
10
40.903
20
3.232
0
VERTEX
8
L1D0
10
40.808
20
3.238
0
VERTEX
8
L1D0
10
40.814
20
3.512
0
VERTEX
8
L1D0
10
40.724
20
3.483
0
VERTEX
8
L1D0
10
40.718
20
3.226
0
SEQEND
0
POLYLINE
8
L1D0
70
1
40
0
41
0
66
1
0
VERTEX
8
L1D0
10
45.663
20
1.045
0
VERTEX
8
L1D0
10
45.663
20
2.745
0
VERTEX
8
L1D0
10
46.163
20
2.745
0
VERTEX
8
L1D0
10
46.163
20
1.045
0
SEQEND
0
POLYLINE
8
L1D0
70
1
40
0
41
0
66
1
0
VERTEX
8
L1D0
10
45.663
20
3.545
0
VERTEX
8
L1D0
10
45.663
20
5.245
0
VERTEX
8
L1D0
10
46.163
20
5.245
0
VERTEX
8
L1D0
10
46.163
20
3.545
0
SEQEND
0
ENDSEC
0
EOF
